<svg id="Warstwa_1" data-name="Warstwa 1" xmlns="http://www.w3.org/2000/svg" width="20" height="20" viewBox="0 0 20 20">
  <defs>
    <style>
      .cls-1 {
        fill: #72b62b;
      }

      .cls-2 {
        fill: #fff;
      }
    </style>
  </defs>
  <g>
    <path class="cls-1" d="M20,10a10,10,0,1,1-2.63-6.75,8.61,8.61,0,0,1,.92,1.17A9.89,9.89,0,0,1,20,10Z"/>
    <path class="cls-2" d="M17.37,3.25c-.44.55-.76,1-1,1.29a6.43,6.43,0,0,0-.63,1.06,2.77,2.77,0,0,0-.25,1.17.54.54,0,0,0,0,.2,2.34,2.34,0,0,1,.09.24c-.55,1-1.18,2-1.88,3.18s-1.33,2.11-1.86,2.86a22.59,22.59,0,0,1-1.63,2.05,12.9,12.9,0,0,1-1.68,1.58,1.43,1.43,0,0,1-.71-1.17,5.81,5.81,0,0,1,.46-2c.31-.77.81-1.84,1.5-3.2.6-1.18,1.19-2.25,1.76-3.22S12.63,5.52,13,4.89s.7-1.1.9-1.42a1.87,1.87,0,0,0,.31-.61,2.46,2.46,0,0,0-.55-1.51A1.49,1.49,0,0,0,12.57.63,6.73,6.73,0,0,0,10.78,1,20.11,20.11,0,0,0,7.89,2.26,28.5,28.5,0,0,0,4.38,4.38,7.73,7.73,0,0,0,2.14,6.53a5.74,5.74,0,0,0-.62,2.92,2.19,2.19,0,0,0,.06.61.29.29,0,0,0,.31.19,6,6,0,0,0,1-.4,11,11,0,0,1,1.7-.61l1.18-.3a4.52,4.52,0,0,0,.67-.21c.17-.07.25-.17.25-.29s-.2-.22-.6-.22a8.66,8.66,0,0,0-1,.08,6.92,6.92,0,0,1-.72.08c-.17,0-.25-.05-.25-.16s.07-.18.21-.3.46-.38,1-.79C6.75,6.07,7.87,5.28,8.72,4.75A4.36,4.36,0,0,1,10.78,4C11,4,11,4,11,4.17a8.13,8.13,0,0,1-.66,1.15c-.44.7-.84,1.34-1.19,1.92S8.43,8.54,8,9.42A27.85,27.85,0,0,0,6.78,12,18,18,0,0,0,6,14.16a5.8,5.8,0,0,0-.25,1.5,4.18,4.18,0,0,0,.42,1.85,4,4,0,0,0,1,1.36,1.61,1.61,0,0,0,1,.5c.54,0,1.42-.8,2.65-2.41s2.31-3.11,3.27-4.57,1.76-2.77,2.41-4A24.82,24.82,0,0,0,18,5.36c.13-.35.24-.67.31-.94A8.61,8.61,0,0,0,17.37,3.25Z"/>
  </g>
</svg>
